# xmcd
#
# Track frame offsets: 
#        150
#        11302
#        25023
#        36871
#        52198
#        66316
#        80191
#        90014
#        105583
#        117394
#        129190
#        142488
#        156962
#
# Disc length: 2345 seconds
#
# Revision: 0
# Processed by: cddbd v1.5.2PL0 Copyright (c) Steve Scherf et al.
# Submitted via: ExactAudioCopyFreeDBPlugin 1.0
#
DISCID=ab09270d
DTITLE=Fanny Mae and The Dynamite Believers - Live Love - Give Love
DYEAR=2013
DGENRE=Country
TTITLE0=Sunny Day
TTITLE1=Time Don't Heal Every Wound
TTITLE2=Hipshakin'
TTITLE3=Condition Unknown
TTITLE4=Dream Lover
TTITLE5=A Place In My Heart
TTITLE6=Can't Stand Your Love
TTITLE7=Rocket Scientist
TTITLE8=Right Here Again
TTITLE9=Create Your Destiny
TTITLE10=This 'N' That
TTITLE11=The Sign
TTITLE12=Stand Up
EXTD=
EXTT0=
EXTT1=
EXTT2=
EXTT3=
EXTT4=
EXTT5=
EXTT6=
EXTT7=
EXTT8=
EXTT9=
EXTT10=
EXTT11=
EXTT12=
PLAYORDER=
